<svg xmlns="http://www.w3.org/2000/svg" width="172" height="143.426" viewBox="0 0 172 143.426">
  <g id="Group_187" data-name="Group 187" transform="translate(-123 -50)">
    <g id="Group_186" data-name="Group 186" transform="translate(-6.643)">
      <path id="Path_1" data-name="Path 1" d="M104.294,114.752c-7.8-1.852-15.051-5.889-22.05-10.32,2.293-1.458,4.611-2.867,6.976-4.169.275-.167.573-.323.86-.478a70.918,70.918,0,0,1,6.809-3.261c.358-.143.717-.287,1.063-.418a47.861,47.861,0,0,1,6.355-2.007,28.978,28.978,0,0,1,13.414-.143c.717.155,1.421.358,2.126.573a31.751,31.751,0,0,1,6.51,2.879,44.927,44.927,0,0,1,8.5,6.475c.119.083.239.155.358.239-.072-.12-.155-.227-.227-.346a54.815,54.815,0,0,1-6.868-8.7c-5.148-8.194-7.083-17.165-4.706-27.2,2.162-9.126,6.88-17.619,12.088-25.8-2.186-3.44-4.443-6.809-6.641-10.165-7.179,10.942-14.955,22.767-16.221,35.608C104.067,59.984,91.787,57.452,80.487,55.1c-3.345-.693-6.761-1.362-10.153-2.126.765,3.393,1.433,6.8,2.126,10.141C74.6,73.386,76.892,84.447,82.936,92.82c-.382.215-.752.442-1.123.669C78.994,95.2,76.247,97,73.559,98.757c-2.855,1.875-5.745,3.81-8.672,5.674,2.927,1.863,5.817,3.786,8.672,5.662,9.723,6.39,20.283,13.319,31.762,13.976,13.008.741,22.648-8.313,30.1-19.649-9.067,8.863-19.22,13.152-31.129,10.332m-21.68-49.5c8.087,1.8,16.066,4.073,22.9,8.29a29.143,29.143,0,0,1,9.556,9.317v.012a27.317,27.317,0,0,1,1.816,3.345c.072.155.143.322.2.478.012.012.024.024.024.036.06.108.132.227.2.334l-.071-.036h-.012c-.645-.3-1.3-.573-1.971-.812a25.009,25.009,0,0,0-9.938-1.434A40.855,40.855,0,0,0,91.142,88.52c-.084-.131-.155-.251-.239-.382-4.2-6.82-6.486-14.812-8.29-22.886" transform="translate(79.756 28.24)" fill="#fff"/>
      <path id="Path_4" data-name="Path 4" d="M334.557,77c-2.688-1.756-5.435-3.56-8.254-5.268-.371-.227-.741-.454-1.123-.669,6.044-8.373,8.338-19.434,10.476-29.707q.519-2.508,1.039-5.053c.346-1.7.7-3.392,1.087-5.088-3.392.765-6.808,1.433-10.153,2.126-11.3,2.353-23.579,4.885-32.156,12.423-1.266-12.841-9.042-24.666-16.221-35.608C278.822,9.5,272.622,0,272.623,0l-6.642,10.153s4.618,6.978,6.642,10.165c5.2,8.182,9.914,16.675,12.076,25.8,2.377,10.022.442,18.992-4.694,27.187a54.445,54.445,0,0,1-6.88,8.708c-.072.119-.156.227-.227.346.12-.084.239-.155.359-.239a45.139,45.139,0,0,1,8.493-6.463,31.525,31.525,0,0,1,6.522-2.891c.705-.215,1.41-.406,2.126-.573a29.029,29.029,0,0,1,13.426.143,48.254,48.254,0,0,1,6.343,2.007c.358.131.7.275,1.063.418a69.6,69.6,0,0,1,6.809,3.261c.3.155.585.311.872.478,2.353,1.3,4.67,2.711,6.964,4.169-7,4.432-14.25,8.469-22.05,10.32-11.909,2.819-22.062-1.469-31.129-10.332,7.454,11.336,17.093,20.39,30.1,19.649,11.479-.657,22.039-7.585,31.761-13.976,2.855-1.875,5.746-3.8,8.672-5.662-2.926-1.863-5.817-3.8-8.672-5.673M317.213,66.377c-.084.131-.155.251-.239.382A40.851,40.851,0,0,0,302.8,63.021a25.009,25.009,0,0,0-9.938,1.434c-.669.239-1.326.513-1.983.812h-.012c-.024.012-.036.024-.06.036.06-.1.119-.2.179-.3.084-.179.167-.37.251-.549A28.8,28.8,0,0,1,302.6,51.78c6.832-4.216,14.812-6.486,22.9-8.29-1.8,8.075-4.085,16.066-8.29,22.886" transform="translate(-57.36 50.001)" fill="#fff"/>
    </g>
    <text id="Restara" transform="translate(209 184.426)" fill="#fff" font-size="25" font-family="Poppins-SemiBold, Poppins" font-weight="600" letter-spacing="0.4em"><tspan x="-85.4" y="0">RESTARA</tspan></text>
  </g>
</svg>
