<svg xmlns="http://www.w3.org/2000/svg" width="154.133" height="28" viewBox="0 0 154.133 28">
  <g id="Group_183" data-name="Group 183" transform="translate(-20 -84)">
    <text id="Card_Settings" data-name="Card Settings" transform="translate(67.133 84)" fill="#fff" font-size="20" font-family="Poppins-SemiBold, Poppins" font-weight="600" letter-spacing="0.1em"><tspan x="0" y="21">RESTARA</tspan></text>
    <path id="Path_1" data-name="Path 1" d="M75.645,54.529a20.292,20.292,0,0,1-6.02-2.818c.626-.4,1.259-.783,1.9-1.138.075-.046.157-.088.235-.13a19.362,19.362,0,0,1,1.859-.89c.1-.039.2-.078.29-.114a13.066,13.066,0,0,1,1.735-.548,7.911,7.911,0,0,1,3.662-.039c.2.042.388.1.58.157a8.668,8.668,0,0,1,1.777.786,12.266,12.266,0,0,1,2.322,1.768c.033.023.065.042.1.065-.02-.033-.042-.062-.062-.095a14.965,14.965,0,0,1-1.875-2.374,9.366,9.366,0,0,1-1.285-7.426,23.548,23.548,0,0,1,3.3-7.044c-.6-.939-1.213-1.859-1.813-2.775-1.96,2.987-4.083,6.216-4.429,9.721-2.341-2.058-5.694-2.749-8.779-3.392-.913-.189-1.846-.372-2.772-.58.209.926.391,1.856.58,2.769.584,2.8,1.21,5.824,2.86,8.11-.1.059-.205.121-.307.183-.77.466-1.52.959-2.253,1.438-.779.512-1.569,1.04-2.368,1.549.8.509,1.588,1.034,2.368,1.546,2.655,1.745,5.537,3.636,8.671,3.815,3.551.2,6.183-2.27,8.218-5.365-2.475,2.42-5.247,3.591-8.5,2.821M69.727,41.015a20.155,20.155,0,0,1,6.252,2.263,7.956,7.956,0,0,1,2.609,2.544v0a7.457,7.457,0,0,1,.5.913c.02.042.039.088.055.13,0,0,.007.007.007.01.016.029.036.062.055.091l-.019-.01h0c-.176-.082-.356-.157-.538-.222a6.828,6.828,0,0,0-2.713-.391,11.154,11.154,0,0,0-3.871,1.021l-.065-.1a20.217,20.217,0,0,1-2.263-6.248" transform="translate(-44.887 54.859)" fill="#fff"/>
    <path id="Path_4" data-name="Path 4" d="M284.7,21.02c-.734-.48-1.484-.972-2.253-1.438-.1-.062-.2-.124-.307-.183,1.65-2.286,2.276-5.306,2.86-8.11q.142-.685.284-1.379c.095-.463.192-.926.3-1.389-.926.209-1.859.391-2.772.58-3.085.642-6.437,1.334-8.779,3.392-.346-3.506-2.469-6.734-4.429-9.721L267.794,0l-1.813,2.772s1.261,1.905,1.813,2.775a23.62,23.62,0,0,1,3.3,7.044,9.372,9.372,0,0,1-1.282,7.422,14.865,14.865,0,0,1-1.878,2.377c-.02.033-.042.062-.062.095.033-.023.065-.042.1-.065a12.324,12.324,0,0,1,2.319-1.764,8.607,8.607,0,0,1,1.78-.789c.193-.059.385-.111.581-.157a7.925,7.925,0,0,1,3.665.039,13.172,13.172,0,0,1,1.732.548c.1.036.192.075.29.114a19,19,0,0,1,1.859.89c.082.042.16.085.238.13.642.355,1.275.74,1.9,1.138a20.289,20.289,0,0,1-6.02,2.818c-3.251.77-6.023-.4-8.5-2.821,2.035,3.095,4.667,5.567,8.218,5.365,3.134-.179,6.017-2.071,8.671-3.815.779-.512,1.569-1.037,2.368-1.546-.8-.509-1.588-1.037-2.368-1.549m-4.735-2.9-.065.1a11.153,11.153,0,0,0-3.871-1.021,6.828,6.828,0,0,0-2.713.391c-.183.065-.362.14-.541.222h0l-.016.01c.016-.026.033-.055.049-.082.023-.049.046-.1.069-.15a7.863,7.863,0,0,1,3.1-3.46,20.157,20.157,0,0,1,6.252-2.263,20.222,20.222,0,0,1-2.263,6.248" transform="translate(-228.514 84.001)" fill="#fff"/>
  </g>
</svg>
